<svg width="20" height="20" viewBox="0 0 20 20" fill="none" xmlns="http://www.w3.org/2000/svg">
<path d="M10.0001 5.83342C9.54175 5.83342 9.16675 6.20842 9.16675 6.66675V9.16675H6.66675C6.20842 9.16675 5.83342 9.54175 5.83342 10.0001C5.83342 10.4584 6.20842 10.8334 6.66675 10.8334H9.16675V13.3334C9.16675 13.7917 9.54175 14.1667 10.0001 14.1667C10.4584 14.1667 10.8334 13.7917 10.8334 13.3334V10.8334H13.3334C13.7917 10.8334 14.1667 10.4584 14.1667 10.0001C14.1667 9.54175 13.7917 9.16675 13.3334 9.16675H10.8334V6.66675C10.8334 6.20842 10.4584 5.83342 10.0001 5.83342ZM10.0001 1.66675C5.40008 1.66675 1.66675 5.40008 1.66675 10.0001C1.66675 14.6001 5.40008 18.3334 10.0001 18.3334C14.6001 18.3334 18.3334 14.6001 18.3334 10.0001C18.3334 5.40008 14.6001 1.66675 10.0001 1.66675ZM10.0001 16.6667C6.32508 16.6667 3.33341 13.6751 3.33341 10.0001C3.33341 6.32508 6.32508 3.33341 10.0001 3.33341C13.6751 3.33341 16.6667 6.32508 16.6667 10.0001C16.6667 13.6751 13.6751 16.6667 10.0001 16.6667Z" fill="white"/>
</svg>
