<svg width="16" height="16" viewBox="0 0 16 16" fill="none" xmlns="http://www.w3.org/2000/svg">
<g clip-path="url(#clip0_2208_828)">
<path fill-rule="evenodd" clip-rule="evenodd" d="M4.06536 0.0517578L4.48431 1.36329H5.86876L4.74846 2.17393L5.17654 3.47636L4.06536 2.66576L2.95419 3.47636L3.38224 2.17393L2.26196 1.36332H3.63728L4.06536 0.0517578Z" fill="#FFE400"/>
<path fill-rule="evenodd" clip-rule="evenodd" d="M8.00003 2.38354C9.33892 4.05034 11.3245 4.46019 14.0842 4.86097C14.1115 9.74285 12.4994 13.6593 8.00003 16.0001C3.50065 13.6593 1.88854 9.74288 1.91587 4.86097C4.67561 4.46019 6.66114 4.05031 8.00003 2.38354Z" fill="#221E1F"/>
<path fill-rule="evenodd" clip-rule="evenodd" d="M2.1709 5.08875C2.18913 9.74297 3.74658 13.4499 7.99095 15.7178C12.2353 13.4499 13.7928 9.74297 13.811 5.08875C12.9184 4.96125 12.0167 4.81551 11.1605 4.57869C10.3499 4.3601 9.56663 4.05043 8.8744 3.5677C8.54653 3.34001 8.25506 3.07586 7.99095 2.78442C7.7268 3.07586 7.42623 3.34001 7.10746 3.5677C6.41523 4.05043 5.63196 4.3601 4.82133 4.57869C3.9652 4.80641 3.06348 4.96125 2.1709 5.08875Z" fill="#D30A11"/>
<path fill-rule="evenodd" clip-rule="evenodd" d="M2.11768 5.08876C2.11768 5.88116 2.1733 6.64624 2.26603 7.37486L5.14017 4.47852C5.02889 4.51497 4.92691 4.54227 4.81566 4.5696C3.94414 4.80642 3.0263 4.96125 2.11768 5.08873V5.08876Z" fill="black"/>
<path fill-rule="evenodd" clip-rule="evenodd" d="M2.74133 9.46888C2.93314 10.0982 3.17064 10.7001 3.46295 11.2656L10.2315 4.27021C9.75647 4.08779 9.30891 3.85978 8.8887 3.56792C8.80649 3.5132 8.72428 3.44935 8.64207 3.3855L2.74133 9.46888ZM4.44246 12.8081C4.79788 13.2649 5.18976 13.7033 5.64542 14.1053L13.8109 5.6102C13.82 5.43662 13.82 5.2631 13.82 5.08952C13.2641 5.00731 12.6991 4.91598 12.1432 4.80637L4.44246 12.8081ZM7.01174 15.2115C7.30689 15.4044 7.6205 15.5881 7.95253 15.7625C11.1252 14.0821 12.813 11.6027 13.4863 8.53568C13.4771 8.51729 13.4679 8.50809 13.4679 8.48973L7.01174 15.2115Z" fill="#221E1F"/>
<path fill-rule="evenodd" clip-rule="evenodd" d="M4.83953 7.20171C4.22929 6.83738 3.93785 6.26357 3.91052 5.37098C4.39322 5.35279 4.6756 5.20705 4.83953 4.99756C5.00347 5.20705 5.25852 5.30723 5.75035 5.33456C5.71389 6.2909 5.44978 6.82829 4.83953 7.20168V7.20171Z" fill="#FFD900" stroke="black" stroke-width="0.0819829"/>
<path fill-rule="evenodd" clip-rule="evenodd" d="M9.08385 8.26743V8.45869C9.08385 8.66818 9.07475 8.87764 9.11118 9.0507C9.12941 9.16001 9.15674 9.26019 9.20226 9.36947C9.24782 9.47878 9.31157 9.58809 9.41175 9.7156C9.44821 9.76112 9.4937 9.82488 9.54836 9.87953C9.63034 9.97061 9.70323 10.0617 9.75785 10.1528C9.76698 10.171 9.78518 10.1892 9.79431 10.2074C9.83983 10.2803 9.92181 10.3349 10.0129 10.3714C10.1131 10.4169 10.2133 10.4351 10.3226 10.4351C10.441 10.4351 10.5685 10.3896 10.6596 10.3076C10.7415 10.2348 10.7871 10.1255 10.7962 9.98884C10.8144 9.67007 10.614 9.31485 10.3955 8.92316C10.2861 8.73193 10.1768 8.54064 10.0857 8.34028C9.99467 8.14902 9.93088 7.95773 9.88539 7.75737C9.84893 7.55701 9.83073 7.35661 9.84893 7.13802C9.85806 6.99229 9.90359 6.85568 9.96734 6.74634C10.0311 6.62796 10.1222 6.52778 10.2224 6.46403C10.2679 6.4367 10.3226 6.40937 10.3772 6.39114C10.4318 6.37295 10.4956 6.36382 10.5503 6.36382C10.7506 6.36382 10.9419 6.46403 11.0694 6.64619C11.1878 6.81013 11.2607 7.03781 11.2698 7.32929C11.3062 7.37481 11.3427 7.43856 11.3791 7.52055C11.4155 7.61163 11.4519 7.72091 11.4702 7.81202C11.4884 7.88487 11.4884 7.95773 11.4884 8.03061C11.4884 8.10349 11.4884 8.16721 11.5066 8.22187C11.5157 8.26743 11.5339 8.31295 11.5612 8.35848C11.6068 8.45869 11.6523 8.56797 11.6523 8.7228C11.6523 8.75926 11.6159 8.77746 11.5795 8.75926C11.543 8.73193 11.5157 8.7137 11.4975 8.70461C11.461 8.67728 11.4337 8.65905 11.37 8.61352C11.3518 8.60439 11.3244 8.5862 11.288 8.56797C11.2789 8.56797 11.2789 8.55887 11.2698 8.55887C11.1969 8.52241 11.1149 8.47692 11.0785 8.44046C11.0239 8.3858 10.9783 8.32205 10.9419 8.2401C10.9054 8.14902 10.869 8.04881 10.8508 7.95773C10.8326 7.86664 10.8326 7.73914 10.8417 7.62986C10.8508 7.51145 10.869 7.40214 10.8963 7.33838C10.8963 7.31106 10.9146 7.27463 10.9328 7.22911C10.951 7.18358 10.9692 7.14712 10.9692 7.1198C10.9601 7.01962 10.9146 6.90121 10.8235 6.81922C10.7597 6.75547 10.6687 6.70995 10.5685 6.71904C10.4774 6.72814 10.4136 6.7646 10.3681 6.82835C10.3134 6.89211 10.2861 6.97406 10.2588 7.05604C10.2315 7.13799 10.2224 7.2473 10.2315 7.36571C10.2406 7.49322 10.2588 7.62986 10.2952 7.77556C10.3863 8.15812 10.5594 8.43136 10.7415 8.7137C10.8275 8.84788 10.9095 8.98455 10.9874 9.12355C11.0603 9.26019 11.1332 9.42413 11.1696 9.58809C11.2061 9.7338 11.2333 9.88863 11.2242 10.0435C11.2152 10.2985 11.1241 10.5262 10.9601 10.6901C10.8053 10.845 10.5958 10.9452 10.3408 10.9452C10.2497 10.9452 10.1586 10.9361 10.0767 10.9179C10.0129 10.8996 9.94914 10.8723 9.88536 10.8268C9.87626 10.8541 9.87626 10.8723 9.86716 10.8996C9.85806 10.9361 9.85806 10.9816 9.86716 11.0363C9.87626 11.1 9.89449 11.1638 9.92181 11.2275C9.95824 11.3095 9.99467 11.3824 10.022 11.4461C10.0493 11.5008 10.0675 11.5372 10.0857 11.5554C10.104 11.5736 10.1313 11.5919 10.1495 11.6192C10.2497 11.7194 10.3408 11.8104 10.4318 11.8469C10.4501 11.856 10.4774 11.856 10.4956 11.8651C10.5594 11.8742 10.6049 11.8924 10.6049 11.9562C10.6049 12.0017 10.5958 12.0199 10.5867 12.0564C10.5776 12.0746 10.5776 12.0928 10.5685 12.111C10.5594 12.1565 10.5503 12.2112 10.5412 12.2658C10.5321 12.3205 10.5321 12.3751 10.5321 12.4116C10.5321 12.4753 10.5412 12.5391 10.5594 12.6119C10.5776 12.6848 10.5958 12.7577 10.614 12.8214C10.6231 12.8488 10.6322 12.8761 10.6505 12.9125C10.6778 12.9672 10.696 13.0309 10.7233 13.122V13.1311C10.7324 13.1311 10.7415 13.1402 10.7597 13.1493C10.8144 13.1766 10.869 13.204 10.869 13.2677C10.869 13.3132 10.8144 13.3679 10.7597 13.4134C10.7324 13.4408 10.7051 13.459 10.6869 13.4863C10.6869 13.4954 10.6596 13.5045 10.6596 13.5045H10.5138C10.4774 13.5045 10.4136 13.5592 10.3681 13.5865C10.359 13.5956 10.3408 13.6047 10.3408 13.6138C10.2952 13.6503 10.1951 13.6594 10.1039 13.6412C10.0402 13.632 9.97644 13.6047 9.94004 13.5592C9.92181 13.5683 9.90359 13.5683 9.88536 13.5683C9.85806 13.5774 9.83073 13.5774 9.80341 13.5774C9.76695 13.5774 9.72146 13.5683 9.685 13.5592C9.6759 13.5592 9.66677 13.5501 9.65767 13.5501V13.5683C9.65767 13.5956 9.65767 13.6138 9.66677 13.6502C9.66677 13.6685 9.65767 13.6958 9.63944 13.7049C9.59391 13.714 9.54836 13.714 9.51193 13.6958C9.4846 13.6867 9.45728 13.6594 9.43908 13.6412C9.42085 13.6138 9.40262 13.5865 9.39352 13.5683C9.39352 13.5501 9.38442 13.5319 9.38442 13.5228L9.3571 13.5501L9.3389 13.5683C9.31157 13.5956 9.28424 13.6047 9.24782 13.5774C9.20226 13.5228 9.18406 13.459 9.18406 13.3953C9.18406 13.3133 9.20226 13.2313 9.22959 13.1949C9.22959 13.1766 9.23869 13.1584 9.24782 13.1493V13.1402C9.25692 13.1129 9.27515 13.0764 9.32067 13.0309C9.35713 12.9854 9.42998 12.9398 9.53016 12.8943C9.59391 12.867 9.73052 12.9763 9.83983 12.9672H9.86716V12.9307C9.87626 12.5846 9.87626 12.4662 9.79427 12.3569C9.75785 12.3114 9.72142 12.275 9.66677 12.2385C9.62124 12.2021 9.55749 12.1839 9.49374 12.1566C9.37533 12.1201 9.26602 12.0746 9.16584 12.029C9.06566 11.9835 8.96548 11.9288 8.86526 11.8651C8.63758 11.7285 8.50094 11.5463 8.40986 11.3368C8.39166 11.2913 8.37343 11.2366 8.35523 11.1911C8.30058 11.2184 8.2095 11.2549 8.09109 11.2822C8.08199 11.2822 8.08199 11.2913 8.07286 11.2913C7.98178 11.3277 7.82694 11.437 7.70857 11.5554C7.61748 11.6465 7.5537 11.7376 7.5446 11.8104C7.5355 11.8651 7.5446 11.9198 7.5537 11.9653C7.58103 12.111 7.59926 12.2567 7.36244 12.4389C7.35334 12.4844 7.32601 12.53 7.31691 12.5755C7.28045 12.6666 7.24403 12.7668 7.24403 12.8852C7.28958 12.9307 7.30778 12.9945 7.29868 13.0583C7.29868 13.1129 7.26226 13.1767 7.21673 13.2222C7.17118 13.2677 7.11652 13.3041 7.06187 13.3041H6.98901C6.95255 13.295 6.90706 13.295 6.88883 13.3041C6.7431 13.3679 6.63379 13.377 6.55183 13.3679C6.46988 13.3588 6.42433 13.3315 6.39697 13.3042C6.36057 13.3133 6.32412 13.3315 6.29679 13.3406H6.28769C6.27859 13.3406 6.26949 13.3406 6.26036 13.3315L6.19661 13.3861C6.18751 13.3952 6.16018 13.3953 6.15108 13.3953C6.11462 13.3861 6.0782 13.3588 6.06 13.3224C6.05087 13.3133 6.05087 13.3042 6.04177 13.295C6.03267 13.3315 6.02358 13.3588 5.97802 13.3679C5.94156 13.377 5.88694 13.3588 5.83228 13.3042C5.79586 13.2677 5.75943 13.2222 5.7412 13.1675V13.1584C5.7412 13.1493 5.7321 13.1402 5.7321 13.1311V13.122C5.7321 13.1129 5.723 13.1038 5.723 13.0947L5.69568 13.04C5.66835 12.9854 5.66835 12.9216 5.66835 12.867C5.67745 12.8123 5.69568 12.7577 5.7321 12.7031C5.76856 12.6575 5.82318 12.6119 5.87784 12.5755C5.93249 12.5482 5.99625 12.53 6.06 12.5209C6.16018 12.5209 6.24216 12.5664 6.31502 12.621C6.37877 12.6575 6.44252 12.703 6.50628 12.6939C6.53361 12.6939 6.55184 12.6848 6.57916 12.6666C6.60649 12.6484 6.62469 12.6301 6.64292 12.6028C6.66115 12.5755 6.66111 12.5391 6.66111 12.5027V12.4753V12.284C6.66111 12.2203 6.66111 12.1474 6.65201 12.0746C6.65201 12.0017 6.65201 11.9288 6.64292 11.8651C6.64292 11.7194 6.64292 11.5828 6.61559 11.437C6.60649 11.3641 6.58826 11.2913 6.58826 11.2184C6.57916 11.0909 6.58826 10.9543 6.62472 10.8359C6.66111 10.7084 6.72487 10.5809 6.83418 10.4715C7.11652 10.1801 7.50817 10.1528 7.97268 10.1254C8.00001 10.1254 8.03643 10.1254 8.06376 10.1164C8.05466 10.0981 8.03643 10.0708 8.0273 10.0526C7.93625 9.87043 7.78142 9.7247 7.60835 9.55163C7.37154 9.31482 7.08923 9.0416 6.83418 8.54977C6.77042 8.54064 6.69757 8.52244 6.63382 8.49512C6.55184 8.46779 6.46985 8.42226 6.37877 8.36761C6.29682 8.32205 6.25126 8.28566 6.19661 8.2401C6.13285 8.19454 5.92336 8.03061 5.83228 8.03061C5.81409 8.03061 5.77766 8.06704 5.7412 8.09436C5.71387 8.12169 5.68658 8.13989 5.65925 8.15812C5.61369 8.18544 5.57727 8.17635 5.54994 8.12166C5.54084 8.10346 5.54084 8.07617 5.54084 8.04881C5.52261 8.05794 5.49528 8.06704 5.46796 8.08526C5.4042 8.12169 5.34955 8.13989 5.29492 8.14902C5.24027 8.14902 5.18561 8.13079 5.13099 8.08526C5.0672 8.03061 4.99435 7.95772 4.9306 7.87577C4.87594 7.80289 4.83042 7.72091 4.80309 7.66628C4.77576 7.59343 4.73021 7.43856 4.82129 7.40214C4.78486 7.34752 4.75753 7.2473 4.76667 7.18355C4.79399 7.15622 4.84862 7.14712 4.88507 7.13802C4.87594 7.09247 4.84862 7.02871 4.83952 6.98316C4.87598 6.94673 4.96702 6.93766 4.99438 6.93766C4.99438 6.92853 4.98525 6.92853 4.98525 6.91944C4.97612 6.88298 4.96702 6.84655 4.96702 6.80103C5.07634 6.71904 5.33135 6.76457 5.34958 6.81922C5.38601 6.85568 5.41333 6.9103 5.43153 6.96496C5.44066 7.00142 5.45886 7.04691 5.46799 7.08337C5.49528 7.16532 5.51351 7.2473 5.55904 7.28373L5.56817 7.29286C5.63192 7.36571 5.69568 7.39304 5.75943 7.42947C5.78676 7.4386 5.81409 7.45679 5.85051 7.47502C5.87784 7.49322 5.92336 7.51145 5.95982 7.52965C6.10553 7.60253 6.23303 7.67538 6.42433 7.79379C6.43343 7.78469 6.44252 7.78469 6.45166 7.77556C6.4152 7.62073 6.35144 7.42033 6.28769 7.22911C6.23303 7.07424 6.17841 6.93763 6.13285 6.84655C6.10553 6.80103 6.09643 6.7737 6.08733 6.75547C6.0782 6.71904 6.0691 6.70994 6.01445 6.67352C6.00535 6.66439 5.98712 6.66439 5.97802 6.65529C5.94156 6.63706 5.91426 6.62796 5.90517 6.58244C5.89604 6.55511 5.90517 6.51868 5.93249 6.49136L5.94159 6.48223C5.89604 6.4549 5.85964 6.41847 5.82318 6.38205C5.76853 6.31829 5.71387 6.22721 5.67745 6.13613C5.65012 6.07237 5.64102 6.00862 5.63192 5.95397C5.62282 5.87202 5.61369 5.79913 5.61369 5.74448C5.61369 5.72628 5.63192 5.69895 5.65015 5.69895C5.70477 5.69895 5.75033 5.69895 5.78676 5.70805V5.69895C5.77766 5.67162 5.77766 5.6443 5.75943 5.617C5.75033 5.58964 5.76853 5.56231 5.80495 5.56231H5.90517C5.92336 5.56231 5.94159 5.56231 5.95982 5.55321V5.54412C5.95069 5.51679 5.94159 5.48036 5.95069 5.46217C5.95069 5.45303 5.96892 5.44394 5.97802 5.4348C6.04177 5.41661 6.09643 5.40748 6.15108 5.41661H6.17841C6.17841 5.39838 6.18751 5.38015 6.19661 5.37105C6.19661 5.36195 6.22394 5.35285 6.23307 5.35285C6.28769 5.35285 6.33325 5.35285 6.37877 5.36195C6.42433 5.37105 6.46072 5.38015 6.48808 5.40748C6.52451 5.42571 6.56093 5.45303 6.58826 5.48946C6.66111 5.56231 6.70667 5.66253 6.71577 5.76271C6.734 5.86289 6.71577 5.9722 6.67024 6.05415C6.65202 6.0906 6.62469 6.1179 6.59736 6.14523C6.58826 6.15436 6.57003 6.16346 6.56093 6.17255C6.52448 6.20901 6.49718 6.22721 6.50628 6.29096C6.53361 6.36382 6.60649 6.48223 6.69757 6.61886C6.77042 6.73727 6.86147 6.85568 6.95259 6.95586C7.09832 6.82835 7.22583 6.71904 7.36244 6.62796C7.44439 6.57331 7.5355 6.52778 7.62658 6.49136C7.61748 6.48223 7.62658 6.48223 7.61748 6.48223C7.60835 6.48223 7.59926 6.49136 7.58103 6.49136C7.5446 6.50955 7.49908 6.53688 7.41709 6.52778C7.39886 6.52778 7.38976 6.52778 7.37157 6.51868C7.32601 6.50046 7.29868 6.47313 7.28049 6.4367C7.26226 6.40024 7.26226 6.36382 7.26226 6.32739C7.26226 6.30919 7.27136 6.28187 7.27136 6.26364C7.27136 6.24544 7.26226 6.22721 7.25316 6.19988C7.24403 6.17256 7.22583 6.13613 7.22583 6.0997C7.22583 6.04505 7.28049 5.99952 7.33511 5.96306C7.34424 5.96306 7.34424 5.95397 7.35334 5.95397C7.36244 5.92664 7.37157 5.89931 7.3898 5.87201L7.39886 5.86288C7.37157 5.85379 7.35334 5.82646 7.33511 5.79913C7.31688 5.7718 7.30778 5.74448 7.30778 5.72628L7.29868 5.71715C7.26226 5.69895 7.1985 5.66252 7.17118 5.53499C7.15295 5.45303 7.17118 5.39838 7.18027 5.33463C7.1894 5.29817 7.1985 5.26177 7.18941 5.22532C7.18027 5.17979 7.17118 5.14336 7.1985 5.10691C7.2167 5.07048 7.26226 5.05228 7.36244 5.05228C7.3989 5.05228 7.46262 5.04315 7.5446 5.01582C7.59926 4.99763 7.65391 4.9794 7.69947 4.95207C7.74496 4.88832 7.79052 4.85189 7.85427 4.82456C7.91802 4.79724 7.99091 4.77904 8.09109 4.76081C8.10019 4.76081 8.11842 4.76081 8.14574 4.75171C8.19127 4.74261 8.25502 4.73348 8.30968 4.73348C8.337 4.68796 8.35523 4.6424 8.39163 4.60597C8.42809 4.55132 8.48274 4.52402 8.5374 4.51489C8.63758 4.51489 8.73776 4.57865 8.80151 4.66976C8.83797 4.71525 8.86526 4.76994 8.87436 4.82456C8.88349 4.86102 8.88349 4.88832 8.88349 4.92478C8.88349 4.93387 8.89259 4.93387 8.89259 4.94297C8.90169 4.97943 8.92905 5.01586 8.95635 5.05228C8.98367 5.07961 9.0019 5.10694 9.02923 5.11604C9.08385 5.13423 9.12941 5.17979 9.17493 5.21622C9.22959 5.26177 9.27515 5.3164 9.30244 5.37108C9.32067 5.40748 9.32977 5.4348 9.348 5.47123C9.3571 5.48946 9.3571 5.51679 9.37533 5.53499C9.39352 5.57144 9.42085 5.59877 9.44818 5.6352C9.48464 5.67162 9.52106 5.69895 9.56659 5.73538C9.62124 5.7809 9.65767 5.82646 9.685 5.88111C9.73052 5.98129 9.73052 6.0906 9.73965 6.19988C9.73965 6.26364 9.75785 6.32739 9.78518 6.38205C9.82163 6.4276 9.86713 6.47313 9.95824 6.50046C9.96734 6.50955 9.98557 6.52778 9.98557 6.53691V6.56421C9.97644 6.59154 9.95824 6.62796 9.94001 6.64616C9.91268 6.66439 9.88536 6.67352 9.84893 6.68262C9.85806 6.7919 9.83983 6.91944 9.8125 7.03784C9.79427 7.15625 9.76698 7.26553 9.72142 7.38394C9.70319 7.42037 9.63034 7.59343 9.59392 7.61163C9.58482 7.80289 9.62124 7.97595 9.65767 8.06704C9.66677 8.08526 9.6759 8.10349 9.66677 8.11256C9.65767 8.12169 9.63034 8.13079 9.61214 8.13079C9.55749 8.13079 9.51193 8.12169 9.45728 8.08526C9.46641 8.11256 9.47551 8.13079 9.49374 8.15812V8.19454C9.52106 8.22187 9.55749 8.231 9.55749 8.231C9.57569 8.2401 9.59392 8.2401 9.59392 8.2583C9.59392 8.26743 9.57569 8.30385 9.56659 8.31295C9.50283 8.35848 9.42998 8.3858 9.348 8.3858C9.24782 8.3858 9.14764 8.35848 9.10208 8.33118H9.08385C9.10208 8.26743 9.09298 8.26743 9.08385 8.26743Z" fill="black"/>
<path fill-rule="evenodd" clip-rule="evenodd" d="M4.46619 6.71905V6.69172C4.47528 6.69172 4.49351 6.68263 4.50261 6.67353C4.50261 6.6644 4.51171 6.6462 4.51171 6.62797V5.6443C4.51171 5.62607 4.51171 5.60785 4.50261 5.59878C4.50261 5.58965 4.49351 5.58055 4.47529 5.58055V5.55322H4.87604C5.0582 5.55322 5.18571 5.69896 5.18571 5.88112C5.18571 5.9722 5.14928 6.10881 5.0673 6.17256L5.21304 6.58245L5.24036 6.63707C5.24946 6.6553 5.26769 6.67353 5.28592 6.69172V6.71905H5.07643V6.69172C5.08553 6.69172 5.09463 6.68263 5.09463 6.68263C5.11285 6.6553 5.09463 6.61887 5.08553 6.60067L4.95802 6.22722C4.92156 6.22722 4.89427 6.23632 4.86694 6.23632H4.62102V6.63707C4.62102 6.6553 4.62102 6.67353 4.63012 6.68263C4.63012 6.69172 4.64835 6.69172 4.66658 6.70082V6.72815H4.46619V6.71905Z" fill="black"/>
<path fill-rule="evenodd" clip-rule="evenodd" d="M4.83043 5.6626H4.62097V6.09978H4.83046C5.00349 6.09978 5.06728 6.01783 5.06728 5.87206C5.06728 5.73545 4.9944 5.6626 4.83046 5.6626H4.83043Z" fill="#FFDA00"/>
<path fill-rule="evenodd" clip-rule="evenodd" d="M5.23122 6.27276L5.24941 6.26363L5.3223 6.48222L5.30407 6.49135C5.26764 6.45489 5.26764 6.44579 5.19479 6.48222C5.07638 6.53687 4.94887 6.5551 4.75761 6.5551C4.63007 6.5551 4.50257 6.52777 4.42058 6.47312C4.30217 6.39117 4.26575 6.26363 4.26575 6.16345C4.26575 5.99951 4.34773 5.7627 4.76671 5.7627C4.87599 5.7627 5.01263 5.79002 5.10371 5.80822C5.18566 5.82645 5.22212 5.85378 5.23122 5.85378C5.24032 5.85378 5.25854 5.85378 5.26764 5.84468C5.27674 5.83555 5.29497 5.81735 5.3041 5.81735L5.3223 5.82645L5.24941 6.05414L5.23122 6.04504C5.24032 5.99951 5.19476 5.97219 5.14014 5.94486C5.05818 5.9084 4.92155 5.8811 4.78491 5.8811C4.49347 5.8811 4.39325 6.01771 4.39325 6.15435C4.39325 6.24543 4.44791 6.34561 4.55722 6.40026C4.60275 6.41846 4.73938 6.42759 4.84866 6.42759C4.92155 6.42759 5.13104 6.39113 5.21299 6.30918C5.22209 6.30918 5.23122 6.29095 5.23122 6.27272V6.27276Z" fill="black"/>
<path fill-rule="evenodd" clip-rule="evenodd" d="M4.70292 6.69176H4.72112C4.73935 6.77371 4.78487 6.75551 4.83043 6.68266C4.86686 6.62801 4.87595 6.55515 4.86686 6.4823C4.85776 6.36389 4.8213 6.23635 4.77577 6.11794C4.73022 5.97224 4.68469 5.8265 4.68469 5.68077C4.68469 5.57149 4.71202 5.47127 4.77577 5.39842C4.8213 5.34377 4.88505 5.30734 4.95794 5.29824C4.98526 5.29824 5.01259 5.28911 5.01259 5.25269H5.03079V5.47127H5.01259C4.99436 5.40752 4.95794 5.41665 4.91238 5.43485C4.88505 5.44398 4.86686 5.46218 4.84863 5.48041C4.8031 5.52593 4.78487 5.59881 4.78487 5.68077C4.78487 5.80827 4.83043 5.94491 4.86682 6.08152C4.91238 6.20902 4.94884 6.34566 4.95794 6.48227C4.96703 6.58248 4.94884 6.68263 4.90328 6.76464C4.87595 6.81927 4.83043 6.85573 4.76668 6.88305C4.72112 6.90125 4.71202 6.91948 4.70292 6.94677H4.68469V6.69176H4.70292Z" fill="black"/>
<path fill-rule="evenodd" clip-rule="evenodd" d="M6.18752 13.2222C6.17842 13.204 6.16019 13.1857 6.15106 13.1766H6.09644C6.10554 13.1949 6.10554 13.2131 6.11467 13.2222L6.14196 13.2495L6.18752 13.2222ZM5.96893 13.1675C5.95983 13.1584 5.9416 13.1584 5.93247 13.1584C5.90518 13.1584 5.88698 13.1584 5.85962 13.1675C5.86875 13.1766 5.87785 13.1949 5.88695 13.204C5.91427 13.2313 5.9416 13.2495 5.9507 13.2404C5.95983 13.2404 5.9416 13.2404 5.9507 13.2313C5.9507 13.204 5.95983 13.1858 5.96893 13.1675Z" fill="#FFDA00"/>
<path fill-rule="evenodd" clip-rule="evenodd" d="M8.31879 11.0635C8.30969 11.0362 8.30969 11.018 8.30059 10.9907C8.25503 10.9907 8.2277 10.9816 8.20041 10.9633C8.15485 10.936 8.13662 10.9087 8.12752 10.8632C8.11843 10.8085 8.15485 10.7447 8.18218 10.681C8.20041 10.6537 8.20951 10.6172 8.21864 10.599V10.5899C8.19128 10.4533 8.16395 10.3167 8.10933 10.1892C8.07287 10.1892 8.02734 10.1983 7.98179 10.1983C7.53551 10.2256 7.16209 10.2529 6.89794 10.517C6.79776 10.6172 6.74311 10.7265 6.70668 10.8449C6.67022 10.9633 6.66112 11.0817 6.67022 11.2001C6.67022 11.2912 6.69758 11.3823 6.70668 11.4734C6.72488 11.5918 6.77953 11.6556 6.85242 11.7466C6.86152 11.7648 6.87971 11.774 6.87971 11.7831C6.88884 11.8013 6.90704 11.8195 6.87971 11.8468C6.84329 11.8741 6.82509 11.8468 6.81596 11.8286C6.78866 11.7922 6.75221 11.7557 6.72488 11.7193V11.8377C6.72488 11.9106 6.72488 11.9835 6.73401 12.0472C6.73401 12.111 6.73401 12.1838 6.74311 12.2567V12.4753C6.74311 12.5299 6.74311 12.5846 6.70665 12.6301C6.67935 12.6575 6.65203 12.6847 6.6156 12.7121C6.58827 12.7303 6.55185 12.7485 6.50629 12.7485C6.41521 12.7576 6.34235 12.7121 6.26037 12.6665C6.19662 12.6301 6.12377 12.5846 6.05088 12.5846C6.00536 12.5846 5.9507 12.6028 5.90518 12.621C5.85962 12.6483 5.8141 12.6847 5.78677 12.7212C5.75944 12.7576 5.74121 12.8032 5.74121 12.8396V12.876C5.75944 12.8396 5.77767 12.8123 5.80497 12.785C5.85052 12.7394 5.91428 12.7121 5.96893 12.703H6.04178C6.06001 12.703 6.09644 12.703 6.08734 12.7485C6.08734 12.7941 6.05088 12.7941 6.03268 12.785H5.98713C5.9416 12.7941 5.90518 12.8123 5.86872 12.8396C5.83229 12.876 5.8141 12.9125 5.80497 12.9762V13.0491C5.80497 13.0582 5.8141 13.0582 5.8141 13.0673C5.85962 13.0491 5.89605 13.04 5.9416 13.0491C5.96893 13.0491 5.98713 13.0582 6.00536 13.0673C6.00536 13.0126 6.00536 12.958 6.03268 12.9124C6.06001 12.8487 6.12377 12.7941 6.26037 12.7667C6.2786 12.7667 6.31503 12.7576 6.31503 12.8032C6.32413 12.8487 6.2877 12.8487 6.2695 12.8578C6.17842 12.876 6.13286 12.9034 6.11464 12.9489C6.09644 12.9854 6.09644 13.04 6.10554 13.0946C6.11467 13.0855 6.12377 13.0855 6.13286 13.0764C6.15109 13.0764 6.16932 13.0673 6.16932 13.0673H6.17842C6.21485 13.0764 6.23304 13.1128 6.26037 13.1493V13.1584C6.2695 13.1584 6.2786 13.1675 6.2877 13.1766L6.36965 13.1493C6.44257 13.122 6.53362 13.0855 6.60647 13.0764C6.6338 13.0764 6.66112 13.0764 6.66112 13.1129C6.66112 13.1584 6.6338 13.1584 6.6156 13.1584C6.57914 13.1584 6.53365 13.1766 6.48809 13.1857C6.50629 13.1948 6.52452 13.1948 6.55185 13.2039C6.6156 13.213 6.71578 13.2039 6.84329 13.1402C6.87975 13.122 6.93437 13.1311 6.98902 13.1402C7.01635 13.1402 7.03458 13.1493 7.05278 13.1493C7.0801 13.1493 7.11653 13.122 7.14386 13.0946C7.18032 13.0582 7.19851 13.0217 7.19851 12.9853C7.20761 12.8669 7.10743 12.8214 7.00725 12.8123C6.99812 12.8123 6.98902 12.8123 6.97079 12.8214C6.95141 12.8317 6.93555 12.8475 6.92527 12.8669C6.90704 12.8851 6.88881 12.9125 6.85242 12.8851C6.81596 12.8578 6.84329 12.8305 6.85242 12.8123C6.87971 12.785 6.89794 12.7667 6.92527 12.7485C6.9526 12.7303 6.97993 12.7212 7.00722 12.7303C7.06188 12.7303 7.09833 12.7485 7.13476 12.7576C7.14386 12.6483 7.18028 12.5664 7.21671 12.4753C7.24404 12.4024 7.2805 12.3113 7.28959 12.2385C7.29869 12.1565 7.2896 12.0745 7.26227 11.9652C7.25317 11.947 7.24404 11.9106 7.28959 11.9015C7.33512 11.8924 7.34425 11.9197 7.34425 11.9379C7.38068 12.0472 7.38977 12.1474 7.38068 12.2294C7.48995 12.111 7.47176 12.0108 7.46263 11.9106C7.45353 11.8559 7.44443 11.8013 7.45353 11.7284C7.46263 11.6282 7.53548 11.5189 7.64479 11.4187C7.69035 11.3732 7.745 11.3277 7.79966 11.2821C7.68125 11.3095 7.57194 11.3186 7.48089 11.3095C7.36248 11.2912 7.2805 11.2457 7.25317 11.1455C7.21671 11.0271 7.2805 10.936 7.36245 10.8541C7.43533 10.7812 7.53551 10.7265 7.6175 10.7083C7.63569 10.6992 7.67212 10.6901 7.68125 10.7356C7.69035 10.7812 7.65392 10.7903 7.63569 10.7903C7.57194 10.7994 7.48995 10.8541 7.4262 10.9178C7.36245 10.9725 7.31692 11.0362 7.34425 11.1182C7.36245 11.1819 7.4171 11.2092 7.49909 11.2184C7.59017 11.2275 7.70858 11.2184 7.82695 11.1911C8.01825 11.1819 8.22771 11.1 8.31879 11.0635ZM9.86714 10.3986C9.87627 10.426 9.88537 10.4533 9.88537 10.4806C9.8945 10.5535 9.8945 10.6355 9.88537 10.7265C9.94915 10.7721 10.0129 10.8085 10.0767 10.8267C10.1495 10.8449 10.2315 10.8541 10.3226 10.8541C10.5503 10.8541 10.7415 10.763 10.8782 10.6263C11.0239 10.4806 11.1059 10.2711 11.115 10.0343C11.115 9.88858 11.0968 9.74288 11.0603 9.60624C11.0148 9.44231 10.951 9.29657 10.8782 9.15996C10.7962 9.01423 10.7142 8.88669 10.6413 8.75921C10.4501 8.45864 10.2861 8.1854 10.1859 7.79374C10.1495 7.64801 10.1313 7.5023 10.1222 7.36566C10.1131 7.23816 10.1222 7.12885 10.1495 7.03776C10.1768 6.94668 10.2133 6.85563 10.2679 6.77365C10.3317 6.70077 10.4137 6.64614 10.5321 6.63701C10.6596 6.62791 10.7689 6.68257 10.8508 6.76455C10.951 6.86473 11.0057 7.00137 11.0148 7.11978C11.0148 7.15617 10.9966 7.21083 10.9783 7.26548C10.9692 7.30191 10.951 7.33834 10.951 7.35657V7.37476C10.9237 7.42032 10.9146 7.52963 10.9055 7.63891C10.8964 7.74822 10.8964 7.8666 10.9146 7.94858L10.9419 8.05789C10.9601 7.93038 11.0057 7.81197 11.033 7.75732C11.0421 7.73909 11.0694 7.70266 11.1059 7.72086C11.1423 7.74822 11.1241 7.78464 11.1059 7.80284C11.0785 7.8484 11.033 7.97591 11.0239 8.10341C11.0148 8.18536 11.0239 8.26738 11.0694 8.33113C11.0785 8.34023 11.0785 8.34023 11.0785 8.34933C11.0877 8.35843 11.0968 8.37666 11.1059 8.38579C11.115 8.38579 11.115 8.39489 11.1241 8.40399C11.115 8.37666 11.115 8.35843 11.1059 8.33113C11.0877 8.20359 11.1059 8.05786 11.1241 7.96681C11.1332 7.94858 11.1423 7.90305 11.1878 7.91215C11.2334 7.92125 11.2152 7.96681 11.2152 7.985C11.1969 8.06699 11.1787 8.1945 11.1969 8.3129C11.206 8.38576 11.2425 8.45864 11.288 8.50416C11.288 8.50416 11.2971 8.50417 11.2971 8.5133C11.3062 8.5133 11.3062 8.52239 11.3153 8.52239C11.3062 8.49507 11.2971 8.47684 11.288 8.44951C11.2516 8.3311 11.2425 8.19449 11.2789 8.02143C11.2789 8.00323 11.288 7.95768 11.3336 7.96681C11.3791 7.97591 11.37 8.01233 11.37 8.03966C11.3427 8.19453 11.3427 8.322 11.3791 8.42221C11.4064 8.52239 11.461 8.59525 11.534 8.65903C11.5248 8.56792 11.4884 8.49507 11.461 8.42221C11.4338 8.36756 11.4156 8.322 11.4064 8.26735C11.3973 8.20359 11.3882 8.13074 11.3882 8.05789C11.3882 7.98504 11.3882 7.91215 11.37 7.85753C11.3518 7.76642 11.3153 7.6662 11.2789 7.58425C11.2425 7.5023 11.206 7.43852 11.1787 7.40209L11.1696 7.37476C11.1696 7.10155 11.0968 6.88293 10.9874 6.72809C10.869 6.56416 10.7142 6.48218 10.5321 6.48218C10.4774 6.48218 10.4319 6.49131 10.3772 6.50041C10.3317 6.50951 10.2861 6.53686 10.2497 6.56416C10.1586 6.61882 10.0858 6.7099 10.022 6.81008C9.96735 6.91026 9.93092 7.03776 9.9127 7.1653C9.8945 7.37476 9.9036 7.57515 9.94915 7.75732C9.98558 7.94858 10.0584 8.13074 10.1404 8.322C10.2315 8.52236 10.3408 8.71369 10.4501 8.90492C10.6778 9.30567 10.8873 9.66999 10.869 10.0161C10.8599 10.1801 10.7962 10.3076 10.7051 10.3895C10.5958 10.4897 10.4592 10.5353 10.3134 10.5353C10.2042 10.5353 10.0766 10.508 9.96735 10.4624C9.93089 10.4351 9.8945 10.4169 9.86717 10.3986H9.86714Z" fill="#FFD900"/>
<path fill-rule="evenodd" clip-rule="evenodd" d="M7.51728 5.79008C7.53551 5.79918 7.54461 5.81741 7.55374 5.8356C7.57194 5.86293 7.65392 5.99957 7.66302 5.99957C7.72677 6.00867 7.85428 5.91759 7.86338 5.85383C7.86338 5.82651 7.84518 5.79008 7.80876 5.76275C7.745 5.699 7.65389 5.63524 7.56284 5.6899C7.55371 5.699 7.52638 5.77185 7.51728 5.79008ZM6.87062 7.3111C6.87062 7.302 6.87971 7.28377 6.88884 7.26558C6.88884 7.25648 6.89794 7.24735 6.89794 7.24735C6.90704 7.21092 6.92527 7.1745 6.9435 7.13807C6.9526 7.10161 6.97079 7.06519 6.97993 7.02876C6.89797 7.10164 6.83419 7.1745 6.79776 7.25648C6.7613 7.32933 6.73401 7.40218 6.73401 7.5024C6.78866 7.45684 6.83419 7.40218 6.87062 7.3111Z" fill="black"/>
<path fill-rule="evenodd" clip-rule="evenodd" d="M9.6577 5.91755C9.63947 5.87199 9.61218 5.82647 9.57575 5.79004C9.57575 5.83556 9.57575 5.89932 9.56662 5.95397C9.56662 5.9722 9.56662 5.99043 9.55752 6.00863C9.59395 5.9904 9.63038 5.95397 9.6577 5.91755ZM9.1841 8.19455C9.22053 8.21278 9.30251 8.23101 9.38446 8.23101C9.42092 8.23101 9.44821 8.23101 9.48464 8.21278C9.47554 8.20365 9.45731 8.19455 9.43912 8.17632C9.32071 8.17632 9.03836 8.04881 8.97461 7.68449C8.98371 7.73914 8.99281 7.8029 9.01104 7.85755C9.03836 7.96686 9.10212 8.07614 9.1841 8.19455Z" fill="#FFDA00"/>
<path fill-rule="evenodd" clip-rule="evenodd" d="M8.08199 7.8757C8.1822 8.13981 8.36437 8.55879 8.51917 8.92312C8.58296 9.07796 8.64671 9.22369 8.70136 9.3512C8.71046 9.3694 8.71956 9.38763 8.67404 9.40586C8.63758 9.42405 8.62848 9.40586 8.61938 9.37853C8.59205 9.32387 8.56473 9.26012 8.5283 9.17817C8.50097 9.19637 8.46455 9.21456 8.45545 9.22366C8.43722 9.22366 8.40079 9.24189 8.39169 9.19637C8.38256 9.15081 8.41902 9.15081 8.43722 9.13261C8.46455 9.12348 8.48278 9.10528 8.49187 9.09615C8.47364 9.05063 8.45542 9.0142 8.43722 8.96865C8.40989 9.0051 8.36437 9.0324 8.31881 9.05973C8.27325 9.08705 8.21863 9.10528 8.16397 9.11438C8.14578 9.11438 8.10935 9.13261 8.10022 9.08705C8.09112 9.04153 8.12755 9.0324 8.14578 9.0324C8.1913 9.0233 8.23686 9.0051 8.28238 8.98687C8.31884 8.96865 8.38256 8.92312 8.40079 8.88669C8.30971 8.66811 8.20043 8.43129 8.11845 8.2218C8.10022 8.28555 8.07289 8.34021 8.04557 8.39486C7.98181 8.49504 7.88166 8.56789 7.78145 8.57702C7.6995 8.58612 7.62658 8.55879 7.56286 8.52237C7.50821 8.49504 7.46265 8.45862 7.42622 8.43129C7.41713 8.43129 7.40803 8.43129 7.3989 8.44039C7.21673 8.48594 7.08013 8.53147 6.92529 8.53147C7.17121 8.97778 7.43536 9.24192 7.66304 9.46961C7.84521 9.64264 7.99094 9.78838 8.10022 9.98874C8.20953 10.1709 8.24596 10.3713 8.29148 10.5717C8.29148 10.5808 8.29148 10.5899 8.30061 10.6172C8.34614 10.8449 8.39169 11.0635 8.47364 11.2639C8.55563 11.4551 8.68314 11.6282 8.89263 11.7466C8.99281 11.8104 9.08389 11.865 9.1841 11.9105C9.28428 11.9561 9.38446 12.0016 9.50287 12.0381C9.57572 12.0654 9.63038 12.0927 9.69413 12.1291C9.74878 12.1656 9.80344 12.2111 9.83987 12.2658C9.94005 12.4024 9.93095 12.5299 9.92182 12.8942V12.9307C9.9856 12.9398 9.9947 12.958 10.0494 12.9398C10.0767 12.9306 10.0949 12.9306 10.1222 12.9306C10.1495 12.9306 10.1769 12.9398 10.2042 12.9489C10.2315 12.958 10.2497 12.9762 10.2679 12.9944C10.277 13.0126 10.3044 13.0399 10.2679 13.0673C10.2315 13.0946 10.2133 13.0673 10.1951 13.049L10.1678 13.0217C10.1586 13.0126 10.1404 13.0126 10.1222 13.0126C10.104 13.0126 10.0949 13.0126 10.0767 13.0217C9.9947 13.049 9.97647 13.0217 9.90362 13.0126H9.82167C9.73969 13.0217 9.53929 12.9307 9.53929 12.9307C9.43911 12.9762 9.38446 13.0126 9.35713 13.0491C9.3298 13.0855 9.31161 13.1128 9.31161 13.131C9.31161 13.131 9.31161 13.1401 9.30248 13.1493C9.30248 13.1584 9.29338 13.1675 9.29338 13.1675V13.1766C9.29338 13.1857 9.30248 13.2039 9.32071 13.213L9.33893 13.2312L9.36626 13.1766C9.39356 13.131 9.43911 13.1037 9.48467 13.0764C9.55752 13.0399 9.6577 13.0399 9.76698 13.0764C9.78521 13.0855 9.82164 13.0946 9.80344 13.1401C9.78521 13.1766 9.75788 13.1675 9.73969 13.1584C9.6577 13.1219 9.58482 13.131 9.5302 13.1584C9.49704 13.1752 9.46881 13.2003 9.44824 13.2312C9.43002 13.2585 9.41179 13.295 9.41179 13.3223C9.41179 13.3587 9.41179 13.386 9.43002 13.4134C9.43911 13.4134 9.43911 13.4225 9.43911 13.4316C9.46644 13.4316 9.49377 13.4225 9.52107 13.4225H9.58485C9.59395 13.386 9.62128 13.3587 9.6668 13.3314C9.70326 13.3041 9.75788 13.2859 9.82167 13.2859C9.85809 13.2859 9.88539 13.2859 9.92185 13.295C9.94005 13.3041 9.96737 13.3041 9.95828 13.3496C9.94918 13.3951 9.92182 13.3861 9.89452 13.3769C9.86719 13.3678 9.83987 13.3678 9.82164 13.3678C9.77611 13.3678 9.73969 13.3769 9.71236 13.3952C9.69296 13.4055 9.67709 13.4213 9.6668 13.4407C9.67593 13.4498 9.68503 13.4498 9.70326 13.4498C9.73056 13.4589 9.76701 13.4589 9.79431 13.468C9.81254 13.468 9.83987 13.468 9.85809 13.4589C9.87629 13.4589 9.90362 13.4498 9.92185 13.4407C9.95828 13.4316 9.9947 13.4042 10.022 13.3952C10.0494 13.3861 10.0676 13.3678 10.0858 13.3678C10.104 13.3587 10.1313 13.3496 10.1495 13.3952C10.1678 13.4316 10.1313 13.4498 10.1131 13.4589C10.104 13.4589 10.0858 13.468 10.0585 13.4863C10.0402 13.4954 10.0311 13.5045 10.0129 13.5136C10.0402 13.5318 10.0676 13.5409 10.104 13.55C10.1769 13.5682 10.2406 13.5591 10.2679 13.5409C10.277 13.5409 10.277 13.5318 10.2953 13.5227C10.3408 13.4771 10.4228 13.4134 10.4956 13.4134H10.614L10.6778 13.3496C10.7143 13.3132 10.7597 13.2768 10.7597 13.2585L10.7051 13.2221C10.6778 13.213 10.6596 13.1948 10.6414 13.1857C10.614 13.1584 10.5776 13.1493 10.523 13.1493C10.4774 13.1493 10.4228 13.1675 10.3681 13.213C10.3499 13.2221 10.3226 13.2494 10.2953 13.213C10.2679 13.1766 10.2953 13.1493 10.3226 13.1401C10.3864 13.0946 10.4592 13.0673 10.523 13.0673C10.5503 13.0673 10.5685 13.0673 10.5958 13.0764C10.5867 13.0582 10.5776 13.049 10.5685 13.0399C10.5412 13.0217 10.523 13.0126 10.4956 13.0035H10.4046C10.3864 13.0035 10.359 13.0035 10.359 12.9671C10.359 12.9215 10.3772 12.9215 10.3955 12.9215C10.4319 12.9215 10.4683 12.9124 10.5048 12.9215C10.5139 12.9215 10.523 12.9215 10.5321 12.9306C10.523 12.9033 10.5139 12.8851 10.5048 12.8669C10.4865 12.8031 10.4592 12.7212 10.441 12.6483C10.4319 12.621 10.4319 12.5936 10.4228 12.5663C10.4228 12.5845 10.4137 12.6301 10.3681 12.621C10.3226 12.6118 10.3317 12.5754 10.3408 12.5572C10.359 12.4388 10.3499 12.3113 10.3044 12.202C10.2588 12.1109 10.1951 12.029 10.104 11.9834C10.0858 11.9743 10.0585 11.9561 10.0676 11.9197C10.0858 11.8832 10.1131 11.8923 10.1313 11.9014C10.2497 11.9561 10.3317 12.0472 10.3772 12.1656C10.3955 12.2111 10.4046 12.2475 10.4137 12.2931V12.2658C10.4228 12.2111 10.4319 12.1474 10.441 12.1018C10.4501 12.0745 10.4501 12.0563 10.4592 12.029C10.4683 12.0107 10.4774 11.9925 10.4774 11.9561C10.4774 11.9561 10.4592 11.9561 10.441 11.947C10.4137 11.9379 10.3955 11.9379 10.3681 11.9197C10.2588 11.8741 10.1678 11.783 10.0585 11.6738L9.9947 11.61C9.96737 11.5918 9.94918 11.5462 9.91275 11.4825C9.88539 11.4278 9.84896 11.3459 9.81254 11.2548C9.78521 11.1819 9.75788 11.109 9.74878 11.0453C9.73969 10.9815 9.73969 10.9269 9.74878 10.8722C9.79431 10.7265 9.80344 10.599 9.78524 10.4897C9.76701 10.3804 9.72146 10.2802 9.6577 10.1891C9.61218 10.1072 9.5302 10.0161 9.45734 9.92502L9.32071 9.76105C9.22053 9.63354 9.14764 9.51513 9.10212 9.40582C9.05656 9.29655 9.02017 9.18723 9.00194 9.06886C8.96548 8.87756 8.97461 8.66811 8.97461 8.45862V8.26735C8.89266 8.25822 8.81974 8.2309 8.74689 8.15804L8.70136 8.11249H8.62848C8.48278 8.09429 8.33704 8.02141 8.22776 7.8848C8.1822 7.83014 8.14578 7.76639 8.11845 7.70264C8.12755 7.74819 8.13665 7.80282 8.14578 7.84837C8.15488 7.8757 8.13665 7.90303 8.10022 7.90303C8.10935 7.8757 8.10019 7.8757 8.08199 7.8757Z" fill="#FFD900"/>
<path fill-rule="evenodd" clip-rule="evenodd" d="M6.70673 7.61159L6.6885 7.62979C6.65207 7.67532 6.60655 7.73907 6.51547 7.80282H6.52457C6.65207 7.7664 6.78871 7.7482 6.88889 7.7664C6.90709 7.7664 6.94355 7.7755 6.93442 7.81195C6.92532 7.85748 6.89799 7.85748 6.87066 7.84838C6.78871 7.83015 6.6703 7.84838 6.55189 7.88481C6.44258 7.92126 6.3333 7.96676 6.26042 8.03054C6.24222 8.04874 6.21489 8.06697 6.18757 8.03054C6.16024 7.99408 6.18757 7.97589 6.2058 7.95766C6.26042 7.91213 6.3333 7.86658 6.40616 7.83925C6.2058 7.71174 6.06916 7.63889 5.93252 7.56604C5.89609 7.54781 5.8688 7.52958 5.82324 7.51138C5.79591 7.49315 5.76859 7.48405 5.74129 7.46582C5.66841 7.4294 5.60465 7.40207 5.52267 7.31099C5.45892 7.26547 5.43159 7.16529 5.40426 7.06507C5.39516 7.02865 5.38606 6.99222 5.36783 6.9558C5.34964 6.91024 5.33141 6.87384 5.30408 6.84648C5.26765 6.81006 5.22213 6.81006 5.17657 6.81006C5.10372 6.82829 5.13105 6.81916 5.10372 6.90114C5.16748 6.90114 5.23123 6.91937 5.27675 6.96489C5.32231 7.00135 5.34964 7.04684 5.34964 7.0833C5.34964 7.10153 5.35874 7.13796 5.31318 7.14706C5.26765 7.15616 5.26765 7.11973 5.25856 7.10153C5.25856 7.0833 5.24033 7.05598 5.213 7.03775C5.18567 7.01955 5.15834 7.01045 5.11282 7.00132H5.04907C4.99441 7.02865 4.99441 7.03778 4.99441 7.13796C5.14015 7.17438 5.19477 7.24724 5.24033 7.32012C5.26765 7.34745 5.33141 7.40207 5.28588 7.44763C5.24033 7.49315 5.1948 7.40207 5.16747 7.37474C5.12192 7.31099 5.06726 7.24724 4.92156 7.21991C4.84867 7.21991 4.89423 7.34745 4.89423 7.35655C4.92156 7.37474 4.93066 7.39297 4.96708 7.4112C5.00354 7.4294 5.05816 7.44763 5.14015 7.50228C5.15834 7.51138 5.18567 7.52958 5.16747 7.56604C5.14015 7.60246 5.11282 7.58423 5.09459 7.57514C5.01264 7.52958 4.96708 7.50228 4.93066 7.49319C4.8578 7.52048 4.876 7.60246 4.8851 7.62979C4.90333 7.68445 4.93976 7.7482 4.99441 7.82105C5.04907 7.8939 5.11282 7.96679 5.17657 8.01231C5.21303 8.03964 5.24943 8.05787 5.28588 8.05787C5.32231 8.05787 5.36783 8.03964 5.41339 8.01231C5.44982 7.98499 5.49534 7.96679 5.52267 7.96679C5.62288 7.93946 5.61375 8.01231 5.62288 8.07607C5.64108 8.06697 5.65931 8.04874 5.67751 8.03054C5.72306 7.98499 5.77772 7.94859 5.82324 7.94859C5.94165 7.94859 6.14201 8.1034 6.23309 8.17628C6.28775 8.21271 6.3333 8.25823 6.41525 8.29469C6.49724 8.34018 6.57922 8.38574 6.65207 8.4131C6.72493 8.44039 6.79781 8.45859 6.87066 8.45859C7.02553 8.46772 7.18033 8.43129 7.37163 8.37664C7.38982 8.36754 7.40805 8.36754 7.41715 8.36754C7.42625 8.36754 7.44448 8.36754 7.45361 8.37664C7.49 8.40397 7.54466 8.44949 7.59931 8.47682C7.65397 8.50415 7.70862 8.52238 7.76325 8.52238C7.83613 8.52238 7.90898 8.45862 7.96361 8.37664C8.00006 8.33111 8.01829 8.26736 8.03652 8.21271C8.05472 8.13076 8.05472 8.0943 8.02739 8.02141C8.00006 7.96679 7.98184 7.92123 7.97274 7.87571C7.8088 7.79376 7.69039 7.57514 7.63574 7.37474C7.62664 7.48405 7.63574 7.59337 7.65397 7.65712C7.66307 7.69354 7.62664 7.72087 7.59931 7.71174C7.42625 7.64799 7.3534 7.58423 7.31697 7.50228C7.28051 7.54781 7.24409 7.56604 7.21676 7.58423C7.20766 7.59337 7.19856 7.59336 7.19856 7.59336C7.18033 7.61156 7.14391 7.60246 7.12571 7.58423C7.10748 7.53871 7.08925 7.49315 7.08925 7.44763C7.05282 7.51138 7.0073 7.56604 6.94355 7.60246C6.92532 7.61156 6.89799 7.60246 6.87976 7.58423C6.87066 7.56604 6.86156 7.54781 6.85246 7.52048C6.81601 7.56604 6.77048 7.60243 6.70673 7.62979C6.71583 7.60246 6.71583 7.6025 6.70673 7.61159Z" fill="#FFD900"/>
<path fill-rule="evenodd" clip-rule="evenodd" d="M6.90703 6.97401C6.81595 6.86473 6.71577 6.73719 6.64292 6.61878C6.55184 6.48218 6.46985 6.34557 6.44256 6.27272V6.26359C6.43343 6.15431 6.46985 6.11785 6.52451 6.06323L6.55184 6.0359C6.57916 6.01767 6.58826 5.99034 6.60649 5.96302C6.65202 5.89016 6.66112 5.80818 6.64292 5.7262C6.63379 5.64425 6.58826 5.5623 6.53361 5.49851C6.50628 5.47118 6.48808 5.45299 6.45166 5.43476C6.42433 5.41656 6.397 5.40743 6.36967 5.39833C6.36058 5.39833 6.33322 5.38923 6.33322 5.42566C6.42433 5.47118 6.49718 5.54407 6.53361 5.64425C6.56094 5.7262 6.56094 5.82641 6.50628 5.94482C6.49718 5.96302 6.48808 5.98124 6.45166 5.97215C6.4152 5.95392 6.42433 5.93569 6.42433 5.91749C6.46985 5.82641 6.46985 5.74443 6.44253 5.68067C6.4152 5.59872 6.35145 5.54407 6.27859 5.50764C6.23304 5.48031 6.18751 5.47118 6.14196 5.46208C6.08733 5.45299 6.0691 5.47118 6.06 5.52584C6.16018 5.54407 6.24217 5.59872 6.29682 5.6898C6.34235 5.76266 6.36058 5.87193 6.34235 6.00857C6.34235 6.0359 6.33325 6.0541 6.29679 6.04503C6.25127 6.0359 6.26036 6.01767 6.26036 5.99947C6.27859 5.88107 6.26036 5.79911 6.22394 5.73533C6.18748 5.67157 6.12376 5.63515 6.04177 5.61692C5.99669 5.60781 5.95025 5.60781 5.90517 5.61692C5.88694 5.61692 5.86871 5.6898 5.87784 5.708C5.95979 5.73533 6.01445 5.78995 6.06 5.85374C6.14195 5.96302 6.17841 6.09965 6.20574 6.20896C6.21484 6.22716 6.21484 6.25446 6.16928 6.26359C6.12376 6.27272 6.12376 6.25449 6.11466 6.22716C6.08733 6.12698 6.05087 5.99947 5.98712 5.90839C5.94159 5.85374 5.88694 5.80818 5.80496 5.78085C5.77766 5.77175 5.69568 5.82641 5.69568 5.86284C5.69568 5.88106 5.70478 5.89929 5.70478 5.91749C5.71388 5.97215 5.7321 6.0359 5.75033 6.09056C5.78676 6.17251 5.82319 6.24539 5.87784 6.30914C5.92337 6.36377 5.97802 6.40023 6.03268 6.41842C6.06913 6.42755 6.06913 6.49131 6.03268 6.50037C6.01445 6.5095 6.00535 6.5095 5.99622 6.52773C5.98712 6.53683 5.98712 6.54593 5.98712 6.55506C5.98712 6.55506 5.99625 6.55506 6.00535 6.56416C6.01445 6.57326 6.03268 6.57326 6.05087 6.59149C6.13286 6.63701 6.14196 6.66434 6.16018 6.7099C6.16928 6.72809 6.17841 6.75542 6.19664 6.79185C6.24213 6.88293 6.30592 7.02866 6.36054 7.18353C6.4152 7.35656 6.47895 7.54783 6.51541 7.69356C6.55184 7.6571 6.57916 7.62068 6.60649 7.59338C6.61559 7.58425 6.61559 7.57515 6.62469 7.56606V7.55692C6.62469 7.42032 6.65202 7.32011 6.70664 7.21993C6.76133 7.12884 6.82505 7.05599 6.90703 6.97401ZM8.47365 4.69701C8.49184 4.65148 8.52827 4.63325 8.5556 4.62415C8.58292 4.61502 8.61025 4.62415 8.62845 4.62415C8.66491 4.63325 8.71043 4.66058 8.73776 4.69701C8.76509 4.73346 8.78332 4.77896 8.79241 4.82451C8.80151 4.88827 8.79241 4.94292 8.76509 4.98848C8.75599 5.00668 8.74686 5.01581 8.73776 5.02491C8.78332 4.99758 8.81061 4.96115 8.81971 4.92473C8.82884 4.88827 8.82884 4.84274 8.81971 4.80632C8.81061 4.76076 8.78332 4.71524 8.75599 4.67881C8.70133 4.60592 8.62845 4.55127 8.56469 4.55127C8.5374 4.55127 8.51007 4.5786 8.48274 4.60592C8.45542 4.64238 8.42809 4.69701 8.40079 4.74256C8.39166 4.75166 8.37343 4.76989 8.36433 4.76989C8.30968 4.76989 8.23683 4.77899 8.18217 4.78809C8.16394 4.78809 8.14571 4.78809 8.12752 4.79719C8.03644 4.80632 7.97268 4.82451 7.91803 4.85184C7.8725 4.87917 7.82694 4.9156 7.79052 4.96115L7.78142 4.97025C7.73586 4.99758 7.66301 5.02491 7.59926 5.0431C7.51731 5.07043 7.43532 5.07956 7.3989 5.07956C7.33511 5.07956 7.31692 5.07956 7.30778 5.08866C7.30778 5.09776 7.30778 5.11599 7.31691 5.15241V5.16151C7.31691 5.20707 7.30778 5.25259 7.29869 5.29815C7.28959 5.34368 7.28049 5.39833 7.28959 5.46208C7.30778 5.54403 7.34424 5.57139 7.37154 5.58049C7.39887 5.58959 7.408 5.60782 7.41709 5.63515C7.41709 5.66248 7.42619 5.68067 7.44442 5.708C7.44442 5.6989 7.45352 5.6989 7.45352 5.6898C7.47175 5.65334 7.48085 5.61692 7.50818 5.60782C7.56283 5.57136 7.61749 5.57136 7.68124 5.58049C7.72676 5.58959 7.80875 5.63515 7.8634 5.6898C7.91803 5.74443 7.94535 5.80821 7.94535 5.86284C7.93626 5.91749 7.8816 5.98125 7.82694 6.0177C7.76319 6.0541 7.69944 6.08142 7.64478 6.07233C7.57193 6.06323 7.51727 5.92659 7.48995 5.87197L7.46262 5.92659C7.46262 5.92659 7.45352 5.94482 7.44442 5.95392C7.43532 5.96302 7.42619 5.97215 7.40796 5.98124C7.37157 6.00857 7.33511 6.0359 7.33511 6.045C7.33511 6.06323 7.34424 6.09056 7.35334 6.10875C7.36244 6.13608 7.38067 6.17251 7.38067 6.20893V6.22716C7.38067 6.23626 7.37157 6.25449 7.37157 6.27272C7.37157 6.30001 7.37157 6.31824 7.38067 6.34557C7.38977 6.36377 7.39887 6.3729 7.41709 6.38203H7.43532C7.49908 6.38203 7.52641 6.3729 7.56283 6.35467C7.59016 6.34557 7.60836 6.32734 7.64478 6.33647C7.67211 6.33647 7.69034 6.35467 7.70857 6.3729L7.73586 6.40023C7.78142 6.382 7.83608 6.3729 7.89073 6.36377C7.96358 6.34557 8.04553 6.30914 8.10932 6.25449C8.18217 6.19074 8.23683 6.11785 8.28235 6.0359C8.31881 5.96302 8.33701 5.89926 8.33701 5.82641C8.34611 5.75356 8.33701 5.68067 8.31878 5.61692C8.30968 5.59872 8.30058 5.57139 8.33701 5.55317C8.38253 5.54407 8.39166 5.56226 8.39166 5.58962C8.41899 5.66248 8.42809 5.74443 8.41899 5.83551C8.40986 5.90839 8.39166 5.99038 8.35524 6.07233C8.30968 6.16341 8.24593 6.25449 8.16394 6.31824C8.09109 6.382 8.00001 6.42755 7.90893 6.44575C7.85427 6.45485 7.79962 6.47308 7.75409 6.48221C7.74499 6.49131 7.73586 6.49131 7.73586 6.49131C7.62658 6.52773 7.5264 6.58239 7.43532 6.63701C7.29868 6.72809 7.17118 6.83737 7.02544 6.96491H7.04367C7.0801 6.98314 7.071 7.00137 7.071 7.02866C7.05277 7.07422 7.04367 7.11062 7.02544 7.14707C6.99811 7.21083 6.97992 7.26548 6.96169 7.32014C6.95259 7.34747 6.95259 7.37476 6.95259 7.40209C6.95259 7.42032 6.95259 7.42942 6.96169 7.44765C7.04364 7.37476 7.08919 7.22906 7.12565 7.11975L7.15295 7.0378C7.16208 7.01047 7.18941 7.00134 7.2076 7.01047C7.22583 7.01957 7.24406 7.04689 7.23493 7.06509L7.2076 7.14707C7.2076 7.15617 7.19851 7.1744 7.19851 7.1926C7.19851 7.21993 7.18941 7.25638 7.18941 7.29281C7.18941 7.34747 7.18941 7.40209 7.2076 7.45674C7.24406 7.43855 7.28956 7.39299 7.30778 7.25638V7.1926V7.11065C7.30778 7.09242 7.32601 7.07419 7.34424 7.07419C7.37157 7.07419 7.38977 7.09242 7.38977 7.11065C7.38977 7.1653 7.38977 7.21993 7.38067 7.25638C7.37157 7.39299 7.38977 7.48407 7.5537 7.55692C7.5446 7.48407 7.5446 7.39299 7.5537 7.30191C7.56283 7.1926 7.58103 7.10155 7.62658 7.05599C7.63568 7.03776 7.66301 7.02867 7.68124 7.03776C7.69944 7.04689 7.70857 7.06509 7.69944 7.08332C7.67211 7.30191 7.81785 7.71176 8.05466 7.76641C8.03644 7.67533 8.02734 7.57515 8.02734 7.47497C8.02734 7.34747 8.03643 7.22906 8.06379 7.11975C8.07286 7.10155 8.09109 7.08329 8.10929 7.08329C8.12748 7.08329 8.14575 7.11065 8.14575 7.12884C8.13662 7.1835 8.13662 7.22906 8.13662 7.27458C8.13662 7.5023 8.2004 7.66623 8.29148 7.78464C8.38253 7.90305 8.51007 7.96681 8.63758 7.985C8.59202 7.91215 8.55563 7.82107 8.51917 7.72999C8.46451 7.54783 8.43722 7.35656 8.44632 7.21086C8.44632 7.1926 8.44632 7.15617 8.49184 7.15617C8.53737 7.15617 8.5374 7.19263 8.5374 7.21083C8.52827 7.35656 8.5556 7.53873 8.61025 7.70266C8.65578 7.8484 8.72866 7.9759 8.81061 8.05789C8.8835 8.13074 8.96548 8.13984 9.04743 8.14897C8.98368 8.04876 8.92902 7.94861 8.90169 7.8484C8.86527 7.72089 8.85617 7.59338 8.85617 7.45674C8.85617 7.35656 8.87436 7.26548 8.90169 7.1744C8.91082 7.15617 8.91992 7.12884 8.96545 7.13794C9.011 7.14707 8.99277 7.1835 8.99277 7.20173C8.96545 7.28368 8.94725 7.37476 8.94725 7.46584V7.55692C8.94725 7.54783 8.95635 7.53873 8.98371 7.53873C9.0292 7.53873 9.0292 7.55692 9.0292 7.57515C9.05653 7.93038 9.29335 8.04879 9.40266 8.06699C9.37162 7.99342 9.34723 7.91722 9.32977 7.8393C9.30244 7.73909 9.29335 7.62981 9.29335 7.5296C9.29335 7.45674 9.29335 7.38389 9.30244 7.31101C9.31158 7.23816 9.32067 7.1744 9.3389 7.12884C9.348 7.11065 9.3571 7.07422 9.40266 7.08332C9.44818 7.09242 9.42998 7.13798 9.42998 7.15617C9.41176 7.20173 9.40266 7.25638 9.39353 7.32014C9.38443 7.38389 9.38443 7.44765 9.38443 7.5114C9.38443 7.47494 9.39353 7.44765 9.40266 7.41122C9.41175 7.37476 9.42085 7.33834 9.42998 7.29281C9.42998 7.26548 9.43908 7.22906 9.48461 7.23816C9.53016 7.24725 9.52107 7.28368 9.52107 7.30191C9.51194 7.34747 9.50284 7.39299 9.49374 7.42942C9.47551 7.51137 9.46641 7.58428 9.48461 7.67533C9.49374 7.72089 9.57569 7.8393 9.53016 7.86659C9.49371 7.89392 9.47551 7.8575 9.46641 7.8393C9.43908 7.79374 9.42085 7.74822 9.41176 7.70266C9.41176 7.72999 9.42085 7.75732 9.42998 7.78461C9.46641 7.85753 9.50284 7.89392 9.53926 7.92125C9.55749 7.93038 9.56659 7.93948 9.58482 7.93948C9.55749 7.83017 9.53926 7.67533 9.53926 7.5114C9.53926 7.34747 9.57572 7.1744 9.63034 7.04689C9.63944 7.02866 9.6668 7.01044 9.685 7.01044C9.7032 7.01044 9.71233 7.04689 9.71233 7.06509C9.71233 7.10155 9.71233 7.13798 9.7032 7.1835C9.73004 7.10369 9.74836 7.02126 9.75785 6.93758C9.78518 6.80098 9.80341 6.67347 9.78518 6.55506V6.5186C9.80341 6.50041 9.83983 6.5095 9.86713 6.5095C9.88536 6.5095 9.90359 6.50041 9.92182 6.48218C9.83983 6.44575 9.77608 6.40023 9.73965 6.33647C9.6941 6.27272 9.6759 6.19073 9.6759 6.11785C9.6759 6.07233 9.6759 6.02677 9.66677 5.98124L9.63034 6.0177C9.58482 6.0541 9.54839 6.08142 9.49374 6.09965C9.45728 6.11785 9.41176 6.07233 9.42998 6.0359C9.43908 6.02677 9.43908 6.00857 9.44818 5.99034L9.43908 5.99947C9.36623 6.06323 9.28421 6.08142 9.19317 6.08142C9.15671 6.08142 9.13851 6.045 9.14761 6.01767C9.15674 5.99947 9.15674 5.99034 9.16584 5.97215C9.09299 6.0541 9.0019 6.12698 8.8835 6.16341C8.84704 6.17251 8.81061 6.13608 8.82884 6.10875C8.84707 6.07233 8.85617 6.0359 8.8653 5.99947C8.80151 6.08142 8.71043 6.14518 8.61935 6.18164C8.58292 6.19074 8.5556 6.15431 8.56469 6.12698C8.59202 6.04503 8.61025 5.96302 8.61025 5.88106C8.61025 5.79911 8.58292 5.7171 8.5283 5.63515C8.51917 5.61692 8.50094 5.58959 8.5374 5.57139C8.57383 5.54407 8.59202 5.57139 8.60115 5.58959C8.66491 5.6898 8.69223 5.78995 8.69223 5.88106C8.69223 5.94482 8.6831 5.99947 8.67401 6.06323C8.71953 6.0359 8.75596 5.99947 8.79241 5.95392C8.84707 5.89016 8.87436 5.81731 8.8835 5.74443C8.8835 5.72623 8.91082 5.6989 8.92902 5.6989C8.94722 5.6989 8.97458 5.7171 8.97458 5.74443C8.97458 5.81731 8.97458 5.89016 8.96545 5.96302C8.95635 5.99947 8.95635 6.02677 8.94725 6.0541C9.00966 6.01879 9.06519 5.97251 9.11118 5.91749C9.17494 5.83554 9.21136 5.75356 9.20226 5.6989C9.20226 5.68067 9.21136 5.65335 9.22959 5.65335C9.24782 5.64425 9.27515 5.65335 9.28425 5.68067C9.30244 5.72623 9.30244 5.78998 9.29335 5.86284C9.28425 5.90839 9.27515 5.95392 9.25689 6.00857C9.30244 5.99947 9.348 5.98124 9.38443 5.95392C9.42998 5.90839 9.46638 5.82641 9.46638 5.68067C9.44818 5.66248 9.42998 5.64425 9.40266 5.62602C9.3662 5.58959 9.32977 5.54407 9.31157 5.49851C9.30244 5.47118 9.29335 5.45299 9.28425 5.43476C9.27515 5.40743 9.26602 5.3801 9.24779 5.35281C9.22049 5.30725 9.17494 5.26172 9.12938 5.21617C9.09299 5.17971 9.04743 5.15241 9.01097 5.13422C8.97458 5.11599 8.93815 5.08866 8.90169 5.05223C8.8835 5.034 8.87436 5.01577 8.86527 4.98848C8.82884 5.0431 8.78332 5.08866 8.70133 5.11599C8.6831 5.12509 8.66487 5.12509 8.64668 5.08866C8.63758 5.07956 8.63758 5.06133 8.64668 5.06133H8.63758C8.61935 5.07043 8.59202 5.07043 8.58292 5.034C8.57382 4.98848 8.59202 4.98848 8.61025 4.97935C8.64671 4.97025 8.67401 4.95202 8.6831 4.92473C8.70133 4.8974 8.71043 4.86097 8.70133 4.81542C8.70133 4.77896 8.6831 4.75166 8.66487 4.72433C8.64668 4.69701 8.62845 4.68788 8.61025 4.67881H8.56469C8.5556 4.67881 8.5465 4.68791 8.5374 4.70611C8.52827 4.72433 8.51917 4.74256 8.48274 4.72433C8.45542 4.74256 8.46451 4.72433 8.47361 4.69701H8.47365Z" fill="#FFD900"/>
<path fill-rule="evenodd" clip-rule="evenodd" d="M7.73595 5.09771C7.71775 5.07951 7.71775 5.04305 7.74508 5.02485C7.7724 5.00662 7.82703 4.9702 7.89078 4.95197C7.91811 4.94287 7.93634 4.94287 7.95457 4.94287C7.9728 4.94287 8.00009 4.95197 8.01832 4.9611C8.03652 4.9702 8.06385 4.98843 8.09117 4.99753C8.1185 5.01576 8.14583 5.04305 8.15493 5.05218C8.15493 5.06128 8.16403 5.07951 8.16403 5.08861C8.15493 5.12507 8.1276 5.13413 8.08207 5.14326C8.05475 5.14326 8.01832 5.15236 7.99099 5.17059C7.84526 5.24344 7.81793 5.20702 7.7724 5.14326C7.76327 5.12503 7.75417 5.10681 7.73595 5.09771Z" fill="black"/>
<path fill-rule="evenodd" clip-rule="evenodd" d="M7.83606 5.07953C7.86339 5.10689 7.87249 5.12508 7.95447 5.07953C7.98176 5.06133 8.00909 5.05223 8.03642 5.05223C8.02732 5.0431 8.00909 5.0431 7.99999 5.034C7.99089 5.0249 7.97267 5.0249 7.96353 5.0249C7.95447 5.0249 7.93624 5.0249 7.92714 5.034C7.89068 5.0431 7.85426 5.0613 7.83606 5.07953Z" fill="#FFDA00"/>
<path fill-rule="evenodd" clip-rule="evenodd" d="M7.89981 5.28907C8.04552 5.36195 8.1275 5.48946 8.17306 5.61697C8.20039 5.70805 8.20039 5.80823 8.18216 5.89021C8.16394 5.98 8.11958 6.0624 8.05465 6.12703C7.96357 6.21811 7.84516 6.27277 7.6721 6.27277C7.6539 6.27277 7.62657 6.27277 7.62657 6.22721C7.62657 6.18166 7.6539 6.18169 7.6721 6.18169C7.80873 6.18169 7.91801 6.13613 7.99086 6.06328C8.04552 6.00862 8.08198 5.94487 8.10017 5.86292C8.1184 5.79 8.1093 5.70805 8.09108 5.6261C8.05462 5.51679 7.98176 5.41661 7.86339 5.35282C7.84516 5.34373 7.82693 5.33463 7.84516 5.28907C7.86339 5.27087 7.88162 5.27997 7.89981 5.28907ZM8.51912 6.46403C8.50881 6.53988 8.5119 6.61694 8.52825 6.69172C8.53738 6.74637 8.56471 6.7919 8.60114 6.83745C8.60114 6.7828 8.60114 6.72814 8.61024 6.67352C8.61934 6.58244 8.6467 6.50046 8.67399 6.4276C8.68309 6.40937 8.69222 6.39115 8.72865 6.40028C8.77417 6.41847 8.76507 6.4367 8.75597 6.4549C8.72865 6.51869 8.71042 6.59154 8.69222 6.67352C8.68309 6.74637 8.68309 6.82836 8.69222 6.91944C8.69222 6.95586 8.65576 6.98319 8.62843 6.96496C8.51916 6.90121 8.4736 6.81013 8.4463 6.70995C8.41898 6.61887 8.42807 6.51869 8.43717 6.4458C8.43717 6.4276 8.4463 6.40028 8.48273 6.40938C8.52825 6.41847 8.52825 6.44583 8.51916 6.46403H8.51912ZM8.99276 6.34562C8.99276 6.36382 8.98366 6.39115 8.98366 6.40938C8.97456 6.50046 8.99276 6.60974 9.03832 6.70082C9.07474 6.7737 9.12027 6.82836 9.19315 6.85568C9.17524 6.80287 9.16601 6.74749 9.16582 6.69172C9.16582 6.58244 9.19315 6.46403 9.23868 6.38205C9.24781 6.36382 9.2569 6.34559 9.29333 6.36382C9.32979 6.38205 9.32066 6.40028 9.31156 6.4276C9.2751 6.50046 9.24781 6.59151 9.24781 6.69172C9.24781 6.7646 9.266 6.83746 9.31156 6.89208C9.32066 6.91031 9.32976 6.92854 9.32066 6.93763C9.30243 6.97409 9.24781 6.96496 9.22048 6.95586C9.09297 6.92854 9.01099 6.84655 8.95633 6.73728C8.90168 6.63706 8.88348 6.50956 8.89258 6.40028C8.89258 6.37295 8.90168 6.35472 8.90168 6.32739C8.90168 6.3092 8.91081 6.28187 8.95633 6.29097C9.00189 6.30006 9.00189 6.31829 8.99279 6.34562H8.99276ZM7.91804 7.1289C7.90891 7.17445 7.90891 7.21998 7.90891 7.27463C7.90891 7.33839 7.92714 7.40214 7.94537 7.4477C7.95447 7.46589 7.96357 7.48412 7.92714 7.50235C7.89068 7.52055 7.88159 7.50235 7.87249 7.48412C7.84516 7.42037 7.82693 7.34752 7.82693 7.27463C7.81783 7.18355 7.82693 7.1016 7.84516 7.04695C7.81783 7.01049 7.8087 6.97406 7.7905 6.92854C7.76318 6.82836 7.78141 6.72818 7.80873 6.64619C7.81783 6.62796 7.82693 6.59154 7.87249 6.60974C7.91801 6.61887 7.89981 6.65529 7.89068 6.67352C7.86339 6.74637 7.85426 6.82836 7.87249 6.90121C7.88159 6.92854 7.89068 6.95586 7.90891 6.98316C7.90891 6.94673 7.90891 6.91031 7.91801 6.87388C7.92714 6.81013 7.95447 6.75547 7.98177 6.70995C7.9909 6.69172 8.01822 6.66439 8.05465 6.68262C8.09108 6.70995 8.07285 6.73728 8.06375 6.75547C8.03642 6.79193 8.01822 6.83742 8.00909 6.88298C7.99999 6.93763 7.99999 7.00139 8.00909 7.08334C8.01822 7.1198 7.97267 7.14713 7.93624 7.1289C7.92714 7.13803 7.92717 7.13803 7.91804 7.1289ZM8.40984 7.29286V7.33839C8.40075 7.43857 8.39165 7.66629 8.49183 7.75737C8.51006 7.76647 8.52829 7.78469 8.50093 7.82112C8.47357 7.85755 8.4554 7.83935 8.43717 7.82112C8.30057 7.70271 8.31876 7.4477 8.32789 7.32929V7.29283C8.32789 7.26553 8.32789 7.23821 8.37342 7.23821C8.40988 7.23821 8.40988 7.26553 8.40988 7.29286H8.40984ZM8.68309 7.41127C8.67399 7.49322 8.68309 7.56611 8.69222 7.62986C8.70132 7.69361 8.72865 7.75737 8.75597 7.83022C8.76507 7.84845 8.77417 7.86668 8.72865 7.88488C8.69219 7.9031 8.68309 7.87578 8.67399 7.85755C8.64666 7.78469 8.62843 7.72094 8.61024 7.64806C8.59201 7.5752 8.59201 7.49322 8.59201 7.41124C8.59201 7.39304 8.59201 7.35662 8.63756 7.35662C8.68309 7.35662 8.68309 7.38394 8.68309 7.41127ZM9.20225 7.32929C9.18405 7.42947 9.20225 7.53878 9.22048 7.63896C9.22048 7.66629 9.22958 7.69361 9.19315 7.70271C9.14759 7.71181 9.14759 7.67538 9.1385 7.65719C9.11117 7.54788 9.10204 7.42947 9.1203 7.31106C9.1203 7.29286 9.1294 7.24731 9.17492 7.25644C9.21138 7.26553 9.20225 7.30196 9.20225 7.32929ZM8.30966 8.79569C8.29144 8.83211 8.25501 8.86854 8.20949 8.90497C8.17303 8.9323 8.12753 8.95052 8.09108 8.95962C8.06375 8.95962 8.03642 8.96872 8.02732 8.92316C8.01822 8.87767 8.05465 8.87767 8.07285 8.87767C8.10017 8.87767 8.1275 8.85944 8.15483 8.84121C8.19129 8.81389 8.21858 8.78656 8.23678 8.75926C8.24591 8.74103 8.26414 8.71371 8.30057 8.73194C8.33699 8.75013 8.31876 8.77746 8.30966 8.79569ZM8.24591 8.62262C8.21858 8.67728 8.16396 8.7228 8.1184 8.75013C8.06375 8.78659 8.00909 8.80479 7.96354 8.80479C7.93624 8.80479 7.90891 8.80479 7.90891 8.75926C7.90891 8.71371 7.93624 8.71371 7.96357 8.71371C7.99999 8.71371 8.03642 8.70461 8.07285 8.67725C8.11065 8.64857 8.14436 8.61488 8.17306 8.5771C8.18216 8.55887 8.20039 8.53154 8.23681 8.54977C8.27324 8.5771 8.26414 8.6044 8.24591 8.62262ZM6.54272 8.18545C6.63377 8.19454 6.74308 8.20364 6.88882 8.20364C7.02543 8.20364 7.18939 8.18545 7.38065 8.14902C7.39885 8.14902 7.42618 8.13989 7.43531 8.18545C7.44441 8.23097 7.42618 8.23097 7.39885 8.2401C7.20759 8.27653 7.03456 8.29473 6.88882 8.29473C6.74308 8.29473 6.62467 8.28563 6.53359 8.27653C6.5154 8.27653 6.48807 8.27653 6.49717 8.23097C6.49717 8.18545 6.5154 8.18545 6.54272 8.18545Z" fill="black"/>
<path fill-rule="evenodd" clip-rule="evenodd" d="M11.9322 2.66625L10.821 3.47685L11.2491 2.17441L10.1288 1.36381H11.5041L11.9322 0.0522461L12.3511 1.36378H13.7356L12.6153 2.17441L13.0434 3.47685L11.9322 2.66625Z" fill="#FFE400"/>
<path fill-rule="evenodd" clip-rule="evenodd" d="M8.00906 0L8.24061 0.72478H9.00566L8.38658 1.17277L8.62314 1.89254L8.00906 1.44456L7.39501 1.89254L7.63157 1.17273L7.01245 0.72478H7.7725L8.00906 0Z" fill="#C5C7C9"/>
</g>
<defs>
<clipPath id="clip0_2208_828">
<rect width="16" height="16" fill="white"/>
</clipPath>
</defs>
</svg>
